<svg width="59" height="59" viewBox="0 0 59 59" fill="none" xmlns="http://www.w3.org/2000/svg">
<path d="M29.1423 43.3261C26.6657 43.3261 24.2278 42.6682 22.0801 41.4299L16.5658 43.3261L17.7074 37.4828C15.9273 35.0449 14.9986 32.1814 14.9986 29.163C14.9792 21.3463 21.3255 15 29.1423 15C36.959 15 43.3053 21.3463 43.3053 29.163C43.3053 36.9798 36.959 43.3261 29.1423 43.3261Z" fill="white"/>
<path d="M21.9831 23.7261C21.9831 23.7261 22.8151 22.2749 23.4923 22.1975C24.1695 22.1201 25.0402 22.1201 25.2724 22.5652C25.5046 23.0102 26.5494 25.5835 26.5494 25.5835C26.5494 25.5835 26.7235 26.0285 26.4526 26.4542C26.1818 26.8799 25.5626 27.499 25.5626 27.499C25.5626 27.499 25.2143 27.944 25.5626 28.4084C25.9109 28.8727 26.4526 29.7434 27.5555 30.8463C28.6583 31.9491 30.7867 32.7424 30.7867 32.7424C30.7867 32.7424 31.0962 32.7811 31.2897 32.5876C31.4832 32.3942 32.528 31.0785 32.528 31.0785C32.528 31.0785 32.857 30.6334 33.4181 30.9043C33.9792 31.1559 36.3977 32.3748 36.3977 32.3748C36.3977 32.3748 36.6879 32.4715 36.6879 32.9166C36.6879 33.3422 36.5138 34.387 36.1655 34.7547C35.8173 35.1029 34.7724 36.2058 33.2052 36.2058C31.638 36.2058 27.9425 34.9288 25.9496 32.9553C23.976 30.9817 22.2153 28.9695 21.809 27.1507C21.422 25.2933 21.4801 24.4807 21.9831 23.7261Z" fill="black"/>
<circle cx="29.5" cy="29.5" r="28.5" stroke="white" stroke-width="2"/>
</svg>
