<svg width="112" height="43" viewBox="0 0 112 43" fill="none" xmlns="http://www.w3.org/2000/svg">
<path d="M40.6213 0.52948H37.3403V12.8198H40.6213V0.52948Z" fill="#282A32"/>
<path d="M40.6208 15.9307H37.3711V27.1736H40.6208V15.9307Z" fill="#282A32"/>
<path d="M0 27.1739L4.62459 15.8077H20.5607L25.4353 27.1739H21.7793L18.3109 18.9496H7.03063L3.62468 27.1739H0Z" fill="#282A32"/>
<path d="M9.3117 12.8198L12.7177 5.45797L15.9674 12.8198H19.4046L14.3425 0.529541H10.9991L5.81201 12.8198H9.3117Z" fill="#282A32"/>
<path d="M82.212 31.8867H83.0557V39.9262H82.337L82.2433 39.0329C81.7745 39.6798 81.0559 40.0494 80.2434 40.0494C78.8998 40.0494 77.6187 39.0945 77.6187 37.2464C77.6187 35.429 78.8373 34.3817 80.2747 34.3817C81.0559 34.3817 81.7745 34.6898 82.212 35.3366V31.8867ZM80.3684 39.2794C81.5246 39.2794 82.2433 38.3861 82.2433 37.154C82.2433 35.8911 81.4621 35.0902 80.3684 35.0902C79.2435 35.0902 78.4936 35.9527 78.4936 37.1848C78.4936 38.4477 79.2748 39.2794 80.3684 39.2794Z" fill="#282A32"/>
<path d="M80.2429 40.1723C78.8993 40.1723 77.4619 39.2482 77.4619 37.2153C77.4619 35.4287 78.6181 34.1966 80.2742 34.1966C80.9616 34.1966 81.6178 34.443 82.0553 34.8743V31.7632H83.2114V40.1107H82.1803L82.1178 39.4331C81.649 39.8951 80.9929 40.1723 80.2429 40.1723ZM80.2742 34.4738C78.8055 34.4738 77.7744 35.5827 77.7744 37.1845C77.7744 39.0018 79.0555 39.8335 80.2429 39.8335C81.0241 39.8335 81.6803 39.4947 82.1178 38.8786L82.3677 38.5398L82.4927 39.7103H82.9302V31.9788H82.399V35.7059L82.1178 35.3055C81.6803 34.8127 81.0241 34.4738 80.2742 34.4738ZM80.3679 39.4331C79.1805 39.4331 78.3368 38.509 78.3368 37.1845C78.3368 35.8599 79.1805 34.9359 80.3679 34.9359C81.5553 34.9359 82.399 35.8599 82.399 37.1537C82.399 38.4782 81.5553 39.4331 80.3679 39.4331ZM80.3679 35.2439C79.3368 35.2439 78.6493 36.014 78.6493 37.1845C78.6493 38.3242 79.3368 39.125 80.3679 39.125C81.3991 39.125 82.0865 38.3242 82.0865 37.1537C82.0865 36.014 81.3991 35.2439 80.3679 35.2439Z" fill="#282A32"/>
<path d="M87.2117 40.0186C85.6493 40.0186 84.3994 39.0329 84.3994 37.2155C84.3994 35.4598 85.6181 34.3201 87.1492 34.3201C88.7428 34.3201 89.7427 35.5214 89.7427 37.0307C89.7427 37.1847 89.7427 37.3387 89.7115 37.4311H85.2431C85.3368 38.5708 86.0868 39.2793 87.2429 39.2793C87.8366 39.2793 88.3991 39.0945 88.899 38.7557L89.3052 39.3101C88.7428 39.7413 87.9929 40.0186 87.2117 40.0186ZM88.8678 36.7843C88.8365 35.891 88.2116 35.0593 87.1179 35.0593C86.0868 35.0593 85.3681 35.7986 85.2431 36.7843H88.8678Z" fill="#282A32"/>
<path d="M87.2112 40.1723C85.4301 40.1723 84.2427 38.971 84.2427 37.2152C84.2427 35.4595 85.4613 34.1658 87.1487 34.1658C88.7423 34.1658 89.8984 35.3671 89.8984 37.0304C89.8984 37.2152 89.8672 37.3693 89.8672 37.4309L89.8359 37.5541H85.4301C85.5551 38.5089 86.2425 39.0942 87.2424 39.0942C87.7736 39.0942 88.3361 38.9094 88.8048 38.6014L88.9298 38.509L89.4922 39.279L89.3672 39.3714C88.836 39.8951 88.0236 40.1723 87.2112 40.1723ZM87.1174 34.4738C85.5863 34.4738 84.5239 35.5827 84.5239 37.2152C84.5239 39.0326 85.8675 39.8643 87.1799 39.8643C87.8674 39.8643 88.5548 39.6487 89.0547 39.279L88.836 38.971C88.3361 39.279 87.8049 39.433 87.2424 39.433C86.0238 39.433 85.1801 38.663 85.0863 37.4309V37.2768H89.5547C89.5547 37.2152 89.5547 37.1228 89.5547 37.0304C89.5547 35.5211 88.5548 34.4738 87.1174 34.4738ZM89.0235 36.938H85.0863L85.1176 36.7532C85.2426 35.6443 86.055 34.905 87.1487 34.905C88.3986 34.905 88.9923 35.8599 89.0547 36.784L89.0235 36.938ZM85.4301 36.63H88.6798C88.586 35.8907 88.0861 35.2131 87.1174 35.2131C86.2737 35.2131 85.5863 35.7675 85.4301 36.63Z" fill="#282A32"/>
<path d="M92.429 39.2788C93.0227 39.2788 93.7414 39.094 93.7414 38.4471C93.7414 37.1226 90.7104 37.8619 90.7104 35.8905C90.7104 34.8124 91.6166 34.3196 92.679 34.3196C93.3352 34.3196 93.9601 34.5044 94.4289 34.8432L94.0851 35.4285C93.7102 35.2129 93.2102 35.0588 92.7415 35.0588C92.179 35.0588 91.5541 35.2745 91.5541 35.8597C91.5541 37.1842 94.6163 36.445 94.6163 38.4163C94.6163 39.5252 93.6789 40.0181 92.5228 40.0181C91.7103 40.0181 91.0854 39.7409 90.4917 39.3404L90.8979 38.786C91.3666 39.094 91.8353 39.2788 92.429 39.2788Z" fill="#282A32"/>
<path d="M92.4915 40.1722C91.7103 40.1722 91.0854 39.9566 90.3667 39.4638L90.2417 39.3713L90.8354 38.5705L90.9604 38.6629C91.4603 39.0017 91.929 39.1557 92.429 39.1557C92.7102 39.1557 93.5852 39.0941 93.5852 38.4781C93.5852 38.016 93.1477 37.862 92.3978 37.6772C91.5541 37.4308 90.5229 37.1536 90.5229 35.9522C90.5229 34.905 91.3666 34.2273 92.6477 34.2273C93.3352 34.2273 93.9601 34.4121 94.4913 34.7817L94.6163 34.8742L94.1164 35.7058L93.9914 35.6134C93.6164 35.3978 93.1477 35.2438 92.7102 35.2438C92.554 35.2438 91.6791 35.2746 91.6791 35.8906C91.6791 36.3527 92.1165 36.5067 92.8665 36.7223C93.7101 36.9687 94.7413 37.2768 94.7413 38.4473C94.7413 39.4946 93.8664 40.1722 92.4915 40.1722ZM90.6792 39.2789C91.2729 39.6794 91.8353 39.8334 92.4915 39.8334C93.4289 39.8334 94.4288 39.4638 94.4288 38.3857C94.4288 37.4308 93.5852 37.1844 92.804 36.9379C92.1165 36.7223 91.3978 36.5375 91.3978 35.829C91.3978 35.2438 91.929 34.8742 92.7415 34.8742C93.1789 34.8742 93.6476 34.9974 94.0539 35.213L94.2413 34.905C93.8039 34.6277 93.2727 34.5045 92.7102 34.5045C91.8353 34.5045 90.8979 34.8742 90.8979 35.9214C90.8979 36.9071 91.7416 37.1227 92.5228 37.3692C93.2102 37.554 93.9289 37.7696 93.9289 38.4781C93.9289 39.2173 93.1789 39.4638 92.4603 39.4638C91.9291 39.4638 91.4603 39.3097 90.9604 39.0017L90.6792 39.2789Z" fill="#282A32"/>
<path d="M95.6802 32.6568C95.6802 32.318 95.9614 32.0715 96.2739 32.0715C96.5863 32.0715 96.8676 32.3488 96.8676 32.6568C96.8676 32.9648 96.5863 33.242 96.2739 33.242C95.9614 33.242 95.6802 32.9648 95.6802 32.6568ZM95.8364 34.4433H96.6801V39.9262H95.8364V34.4433Z" fill="#282A32"/>
<path d="M96.8666 40.0491H95.7104V34.2582H96.8666V40.0491ZM95.9917 39.7411H96.5229V34.5663H95.9917V39.7411ZM96.2729 33.3958C95.8667 33.3958 95.5229 33.0569 95.5229 32.6565C95.5229 32.2561 95.8667 31.9172 96.2729 31.9172C96.6791 31.9172 97.0228 32.2561 97.0228 32.6565C97.0228 33.0569 96.6791 33.3958 96.2729 33.3958ZM96.2729 32.1945C96.0229 32.1945 95.8354 32.3793 95.8354 32.6257C95.8354 32.8721 96.0229 33.0569 96.2729 33.0569C96.5229 33.0569 96.7103 32.8721 96.7103 32.6257C96.7103 32.4101 96.5229 32.1945 96.2729 32.1945Z" fill="#282A32"/>
<path d="M103.46 39.7105C103.46 41.4047 102.304 42.3287 100.679 42.3287C99.8358 42.3287 99.1171 42.0823 98.4921 41.5895L98.8984 41.035C99.3983 41.4047 99.9608 41.5895 100.586 41.5895C101.711 41.5895 102.554 41.0042 102.554 39.5565V38.9404C102.117 39.5565 101.367 39.8953 100.586 39.8953C99.2421 39.8953 97.9609 38.9404 97.9609 37.1231C97.9609 35.2749 99.3046 34.3817 100.586 34.3817C101.398 34.3817 102.117 34.7205 102.554 35.3673L102.648 34.4741H103.398V39.7105H103.46ZM102.617 37.0923C102.617 35.891 101.836 35.0901 100.742 35.0901C99.5858 35.0901 98.8671 35.9526 98.8671 37.0923C98.8671 38.2628 99.617 39.0945 100.742 39.0945C101.867 39.0945 102.617 38.2936 102.617 37.0923Z" fill="#282A32"/>
<path d="M100.678 42.4825C99.8035 42.4825 99.0848 42.236 98.3974 41.7124L98.2724 41.62L98.8661 40.8191L98.9911 40.9115C99.4911 41.2504 100.022 41.4352 100.585 41.4352C101.428 41.4352 102.397 41.0964 102.397 39.5562V39.3406C101.928 39.7718 101.303 40.0491 100.585 40.0491C99.2098 40.0491 97.8037 39.0326 97.8037 37.1228C97.8037 35.1206 99.2411 34.2274 100.585 34.2274C101.303 34.2274 101.96 34.5046 102.428 34.9974L102.491 34.3506H103.522V39.7718C103.616 41.3736 102.46 42.4825 100.678 42.4825ZM98.7099 41.5584C99.2723 41.9588 99.9285 42.1744 100.678 42.1744C102.303 42.1744 103.303 41.2196 103.303 39.7102V34.597H102.866L102.741 35.7675L102.491 35.3979C102.085 34.8126 101.428 34.4738 100.647 34.4738C99.4598 34.4738 98.1787 35.2746 98.1787 37.0612C98.1787 38.8478 99.4598 39.6794 100.647 39.6794C101.428 39.6794 102.116 39.3406 102.491 38.7861L102.522 38.7245H102.772V38.8786V39.4946C102.772 40.9115 102.022 41.6816 100.647 41.6816C100.054 41.6816 99.4911 41.5276 98.9911 41.1888L98.7099 41.5584ZM100.772 39.2482C99.5536 39.2482 98.7411 38.3549 98.7411 37.092C98.7411 35.8291 99.5848 34.9358 100.772 34.9358C101.96 34.9358 102.803 35.8291 102.803 37.092C102.772 38.3549 101.96 39.2482 100.772 39.2482ZM100.741 35.2438C99.7098 35.2438 99.0223 35.9831 99.0223 37.092C99.0223 38.2009 99.741 38.9402 100.741 38.9402C101.772 38.9402 102.428 38.2009 102.428 37.092C102.46 35.9831 101.772 35.2438 100.741 35.2438Z" fill="#282A32"/>
<path d="M109.21 39.8954V36.6919C109.21 35.7062 108.71 35.0594 107.741 35.0594C106.679 35.0594 105.96 35.7986 105.96 36.7843V39.8646H105.117V34.3817H105.835L105.929 35.2442C106.398 34.5973 107.085 34.2893 107.929 34.2893C109.304 34.2893 110.085 35.1826 110.085 36.5687V39.8954H109.21Z" fill="#282A32"/>
<path d="M110.209 40.0489H109.053V36.6914C109.053 36.1369 108.897 35.2129 107.74 35.2129C106.803 35.2129 106.116 35.8597 106.116 36.7838V40.0181H104.959V34.2272H105.991L106.053 34.874C106.522 34.3812 107.178 34.1348 107.928 34.1348C109.334 34.1348 110.24 35.0588 110.24 36.5682V40.0489H110.209ZM109.365 39.7409H109.897V36.5682C109.897 35.2437 109.147 34.4428 107.897 34.4428C107.116 34.4428 106.459 34.7508 106.053 35.3361L105.803 35.6749L105.678 34.5352H105.241V39.7101H105.772V36.7838C105.772 35.6749 106.584 34.9048 107.709 34.9048C108.74 34.9048 109.334 35.5517 109.334 36.6914V39.7409H109.365Z" fill="#282A32"/>
<path d="M74.4309 12.8198C74.056 6.32038 70.0563 3.14771 63.9006 3.14771H58.4323V12.8198H55.4326V0.52948H64.5568C72.5874 0.52948 77.087 5.88915 77.4619 12.8198H74.4309ZM55.4014 15.9308H58.4011V24.5556H63.7444C69.8688 24.5556 73.6185 21.5985 74.3372 15.9308H77.3369C76.5558 22.461 71.9937 27.1738 64.4631 27.1738H55.4014V15.9308Z" fill="#282A32"/>
<path d="M85.6177 27.1739L90.2423 15.8077H106.178L111.053 27.1739H107.397L103.929 18.9496H92.6483L89.2424 27.1739H85.6177Z" fill="#282A32"/>
<path d="M94.9294 12.8198L98.3353 5.45797L101.585 12.8198H105.022L99.9602 0.529541H96.6167L91.4297 12.8198H94.9294Z" fill="#282A32"/>
</svg>
