<svg width="215" height="76" viewBox="0 0 215 76" fill="none" xmlns="http://www.w3.org/2000/svg">
<path d="M26.2908 23.4028H10.7111L0 47.7461H15.5797L26.2908 23.4028Z" fill="#282A32"/>
<path d="M54.529 47.7461H39.923L18.3062 0.0332031H33.1069L47.6155 32.3611L62.1241 0.0332031H70.8877L92.3098 47.7461H78.6775L66.5059 20.6763L54.3342 47.7461" fill="#282A32"/>
<path d="M188.709 23.4028H204.484L215 47.7461H199.42L188.709 23.4028Z" fill="#282A32"/>
<path d="M158.524 47.7461H173.13L194.746 0.0332031H179.946L165.437 32.3611L150.928 0.0332031H142.165L120.743 47.7461H134.375L146.547 20.6763L158.718 47.7461" fill="#282A32"/>
<path d="M99.3206 47.7461V11.718H85.6884V0.0332031H127.559V11.718H113.927V47.7461H99.3206Z" fill="#282A32"/>
<path d="M151.415 61.2812H154.531V69.1684C154.531 71.408 153.947 72.966 152.876 73.9397C151.805 74.9134 150.149 75.4003 147.812 75.4003C146.06 75.4003 144.599 75.1082 143.528 74.5239C142.457 73.9397 141.775 72.966 141.678 71.7975H144.891C145.281 72.5765 146.254 72.966 147.812 72.966C148.981 72.966 149.857 72.7712 150.344 72.2843C150.831 71.7975 151.123 71.1159 151.123 70.1421V69.3631C150.149 70.5316 148.591 71.0185 146.644 71.0185C144.891 71.0185 143.431 70.5316 142.36 69.6553C141.288 68.7789 140.704 67.5131 140.704 66.0525C140.704 64.4945 141.288 63.326 142.36 62.4497C143.431 61.5733 144.891 61.0864 146.741 61.0864C148.884 61.0864 150.442 61.768 151.415 63.0339V61.2812ZM147.812 68.6815C148.884 68.6815 149.76 68.3894 150.442 67.9025C151.123 67.4157 151.415 66.8314 151.415 66.0525C151.415 65.2735 151.123 64.6892 150.442 64.2024C149.76 63.7155 148.884 63.4234 147.812 63.4234C146.741 63.4234 145.768 63.7155 145.183 64.2024C144.502 64.6892 144.21 65.2735 144.21 66.0525C144.21 66.7341 144.502 67.4157 145.183 67.9025C145.768 68.3894 146.644 68.6815 147.812 68.6815Z" fill="#282A32"/>
<path d="M164.366 60.9888C164.853 60.9888 165.34 61.0861 165.924 61.1835V64.1047C165.242 64.0073 164.561 63.91 163.879 63.91C162.711 63.91 161.834 64.2021 161.25 64.8837C160.666 65.4679 160.374 66.539 160.374 67.9023V71.4077H157.16V61.2809H160.276V63.8126C161.055 61.9625 162.418 60.9888 164.366 60.9888Z" fill="#282A32"/>
<path d="M169.04 70.239C167.774 69.2653 167.092 67.9994 167.092 66.3441C167.092 64.6887 167.774 63.4229 169.04 62.4492C170.306 61.4754 172.058 61.0859 174.201 61.0859C176.343 61.0859 178.095 61.5728 179.361 62.4492C180.627 63.4229 181.309 64.6887 181.309 66.3441C181.309 67.9994 180.627 69.2653 179.361 70.239C178.095 71.2128 176.343 71.6022 174.201 71.6022C172.058 71.6022 170.306 71.1154 169.04 70.239ZM171.377 64.2993C170.695 64.7861 170.403 65.4677 170.403 66.2467C170.403 67.0257 170.695 67.7073 171.377 68.1942C172.058 68.681 172.935 68.9732 174.103 68.9732C175.272 68.9732 176.148 68.681 176.83 68.1942C177.511 67.7073 177.803 67.0257 177.803 66.2467C177.803 65.4677 177.511 64.7861 176.83 64.2993C176.148 63.8124 175.272 63.5203 174.103 63.5203C173.032 63.5203 172.058 63.8124 171.377 64.2993Z" fill="#282A32"/>
<path d="M192.799 61.2808H196.207V71.4076H193.091V68.9732C192.117 70.8233 190.462 71.6997 188.222 71.6997C186.664 71.6997 185.496 71.2128 184.619 70.3365C183.743 69.4601 183.354 68.1943 183.354 66.6363V61.2808H186.762V65.5652C186.762 67.8048 187.735 68.8759 189.586 68.8759C190.657 68.8759 191.533 68.4864 192.117 67.8048C192.701 67.1232 192.994 66.1494 192.994 65.0783V61.2808H192.799Z" fill="#282A32"/>
<path d="M206.626 60.9888C208.379 60.9888 209.839 61.4756 210.91 62.4494C211.981 63.4231 212.566 64.689 212.566 66.3443C212.566 67.9996 211.981 69.2655 210.91 70.2392C209.839 71.213 208.379 71.6998 206.626 71.6998C204.581 71.6998 203.12 71.1156 202.049 69.9471V75.4H198.641V61.2809H201.757V63.131C202.731 61.6704 204.386 60.9888 206.626 60.9888ZM202.926 68.2918C203.607 68.7786 204.484 69.0707 205.555 69.0707C206.723 69.0707 207.6 68.7786 208.184 68.2918C208.768 67.8049 209.158 67.1233 209.158 66.2469C209.158 65.3706 208.865 64.7863 208.184 64.2021C207.502 63.6178 206.626 63.4231 205.555 63.4231C204.386 63.4231 203.51 63.7152 202.926 64.2021C202.244 64.689 201.952 65.3706 201.952 66.2469C201.952 67.1233 202.244 67.8049 202.926 68.2918Z" fill="#282A32"/>
</svg>
