<svg width="112" height="43" viewBox="0 0 112 43" fill="none" xmlns="http://www.w3.org/2000/svg">
<path d="M40.6213 0.529541H37.3403V12.8198H40.6213V0.529541Z" fill="white"/>
<path d="M40.6208 15.9307H37.3711V27.1736H40.6208V15.9307Z" fill="white"/>
<path d="M0 27.1738L4.62459 15.8076H20.5607L25.4353 27.1738H21.7793L18.3109 18.9495H7.03063L3.62468 27.1738H0Z" fill="white"/>
<path d="M9.31183 12.8198L12.7178 5.45797L15.9675 12.8198H19.4047L14.3426 0.529541H10.9992L5.81213 12.8198H9.31183Z" fill="white"/>
<path d="M82.2123 31.8867H83.0559V39.9262H82.3372L82.2435 39.0329C81.7748 39.6798 81.0561 40.0494 80.2437 40.0494C78.9 40.0494 77.6189 39.0945 77.6189 37.2464C77.6189 35.429 78.8375 34.3817 80.2749 34.3817C81.0561 34.3817 81.7748 34.6898 82.2123 35.3366V31.8867ZM80.3687 39.2794C81.5248 39.2794 82.2435 38.3861 82.2435 37.154C82.2435 35.8911 81.4623 35.0902 80.3687 35.0902C79.2438 35.0902 78.4938 35.9527 78.4938 37.1848C78.4938 38.4477 79.275 39.2794 80.3687 39.2794Z" fill="white"/>
<path d="M80.2429 40.1723C78.8993 40.1723 77.4619 39.2482 77.4619 37.2153C77.4619 35.4287 78.6181 34.1966 80.2742 34.1966C80.9616 34.1966 81.6178 34.443 82.0553 34.8743V31.7632H83.2114V40.1107H82.1803L82.1178 39.4331C81.649 39.8951 80.9929 40.1723 80.2429 40.1723ZM80.2742 34.4738C78.8055 34.4738 77.7744 35.5827 77.7744 37.1845C77.7744 39.0018 79.0555 39.8335 80.2429 39.8335C81.0241 39.8335 81.6803 39.4947 82.1178 38.8786L82.3677 38.5398L82.4927 39.7103H82.9302V31.9788H82.399V35.7059L82.1178 35.3055C81.6803 34.8127 81.0241 34.4738 80.2742 34.4738ZM80.3679 39.4331C79.1805 39.4331 78.3368 38.509 78.3368 37.1845C78.3368 35.8599 79.1805 34.9359 80.3679 34.9359C81.5553 34.9359 82.399 35.8599 82.399 37.1537C82.399 38.4782 81.5553 39.4331 80.3679 39.4331ZM80.3679 35.2439C79.3368 35.2439 78.6493 36.014 78.6493 37.1845C78.6493 38.3242 79.3368 39.125 80.3679 39.125C81.3991 39.125 82.0865 38.3242 82.0865 37.1537C82.0865 36.014 81.3991 35.2439 80.3679 35.2439Z" fill="white"/>
<path d="M87.2117 40.0186C85.6493 40.0186 84.3994 39.0329 84.3994 37.2155C84.3994 35.4598 85.6181 34.3201 87.1492 34.3201C88.7428 34.3201 89.7427 35.5214 89.7427 37.0307C89.7427 37.1847 89.7427 37.3387 89.7115 37.4311H85.2431C85.3368 38.5708 86.0868 39.2793 87.2429 39.2793C87.8366 39.2793 88.3991 39.0945 88.899 38.7557L89.3052 39.3101C88.7428 39.7413 87.9929 40.0186 87.2117 40.0186ZM88.8678 36.7843C88.8365 35.891 88.2116 35.0593 87.1179 35.0593C86.0868 35.0593 85.3681 35.7986 85.2431 36.7843H88.8678Z" fill="white"/>
<path d="M87.211 40.1723C85.4299 40.1723 84.2426 38.971 84.2426 37.2152C84.2426 35.4595 85.4612 34.1658 87.1485 34.1658C88.7422 34.1658 89.8983 35.3671 89.8983 37.0304C89.8983 37.2152 89.8671 37.3693 89.8671 37.4309L89.8358 37.5541H85.4299C85.5549 38.5089 86.2424 39.0942 87.2423 39.0942C87.7735 39.0942 88.3359 38.9094 88.8047 38.6014L88.9296 38.509L89.4921 39.279L89.3671 39.3714C88.8359 39.8951 88.0235 40.1723 87.211 40.1723ZM87.1173 34.4738C85.5862 34.4738 84.5238 35.5827 84.5238 37.2152C84.5238 39.0326 85.8674 39.8643 87.1798 39.8643C87.8672 39.8643 88.5547 39.6487 89.0546 39.279L88.8359 38.971C88.3359 39.279 87.8047 39.433 87.2423 39.433C86.0236 39.433 85.18 38.663 85.0862 37.4309V37.2768H89.5546C89.5546 37.2152 89.5546 37.1228 89.5546 37.0304C89.5546 35.5211 88.5547 34.4738 87.1173 34.4738ZM89.0234 36.938H85.0862L85.1175 36.7532C85.2425 35.6443 86.0549 34.905 87.1485 34.905C88.3984 34.905 88.9921 35.8599 89.0546 36.784L89.0234 36.938ZM85.4299 36.63H88.6797C88.5859 35.8907 88.086 35.2131 87.1173 35.2131C86.2736 35.2131 85.5862 35.7675 85.4299 36.63Z" fill="white"/>
<path d="M92.4291 39.2788C93.0228 39.2788 93.7415 39.094 93.7415 38.4471C93.7415 37.1226 90.7105 37.8619 90.7105 35.8905C90.7105 34.8124 91.6167 34.3196 92.6791 34.3196C93.3353 34.3196 93.9603 34.5044 94.429 34.8432L94.0853 35.4285C93.7103 35.2129 93.2103 35.0588 92.7416 35.0588C92.1792 35.0588 91.5542 35.2745 91.5542 35.8597C91.5542 37.1842 94.6165 36.445 94.6165 38.4163C94.6165 39.5252 93.679 40.0181 92.5229 40.0181C91.7105 40.0181 91.0855 39.7409 90.4918 39.3404L90.898 38.786C91.3667 39.094 91.8354 39.2788 92.4291 39.2788Z" fill="white"/>
<path d="M92.4917 40.1722C91.7106 40.1722 91.0856 39.9566 90.3669 39.4638L90.2419 39.3713L90.8356 38.5705L90.9606 38.6629C91.4606 39.0017 91.9293 39.1557 92.4292 39.1557C92.7105 39.1557 93.5854 39.0941 93.5854 38.4781C93.5854 38.016 93.1479 37.862 92.398 37.6772C91.5543 37.4308 90.5232 37.1536 90.5232 35.9522C90.5232 34.905 91.3668 34.2273 92.648 34.2273C93.3354 34.2273 93.9604 34.4121 94.4916 34.7817L94.6166 34.8742L94.1166 35.7058L93.9916 35.6134C93.6166 35.3978 93.1479 35.2438 92.7105 35.2438C92.5542 35.2438 91.6793 35.2746 91.6793 35.8906C91.6793 36.3527 92.1168 36.5067 92.8667 36.7223C93.7104 36.9687 94.7415 37.2768 94.7415 38.4473C94.7415 39.4946 93.8666 40.1722 92.4917 40.1722ZM90.6794 39.2789C91.2731 39.6794 91.8356 39.8334 92.4917 39.8334C93.4292 39.8334 94.4291 39.4638 94.4291 38.3857C94.4291 37.4308 93.5854 37.1844 92.8042 36.9379C92.1168 36.7223 91.3981 36.5375 91.3981 35.829C91.3981 35.2438 91.9293 34.8742 92.7417 34.8742C93.1792 34.8742 93.6479 34.9974 94.0541 35.213L94.2416 34.905C93.8041 34.6277 93.2729 34.5045 92.7105 34.5045C91.8356 34.5045 90.8981 34.8742 90.8981 35.9214C90.8981 36.9071 91.7418 37.1227 92.523 37.3692C93.2104 37.554 93.9291 37.7696 93.9291 38.4781C93.9291 39.2173 93.1792 39.4638 92.4605 39.4638C91.9293 39.4638 91.4606 39.3097 90.9606 39.0017L90.6794 39.2789Z" fill="white"/>
<path d="M95.6799 32.6568C95.6799 32.318 95.9612 32.0715 96.2736 32.0715C96.5861 32.0715 96.8673 32.3488 96.8673 32.6568C96.8673 32.9648 96.5861 33.242 96.2736 33.242C95.9612 33.242 95.6799 32.9648 95.6799 32.6568ZM95.8362 34.4433H96.6798V39.9262H95.8362V34.4433Z" fill="white"/>
<path d="M96.8665 40.0491H95.7103V34.2582H96.8665V40.0491ZM95.9915 39.7411H96.5227V34.5663H95.9915V39.7411ZM96.2728 33.3958C95.8665 33.3958 95.5228 33.0569 95.5228 32.6565C95.5228 32.2561 95.8665 31.9172 96.2728 31.9172C96.679 31.9172 97.0227 32.2561 97.0227 32.6565C97.0227 33.0569 96.679 33.3958 96.2728 33.3958ZM96.2728 32.1945C96.0228 32.1945 95.8353 32.3793 95.8353 32.6257C95.8353 32.8721 96.0228 33.0569 96.2728 33.0569C96.5227 33.0569 96.7102 32.8721 96.7102 32.6257C96.7102 32.4101 96.5227 32.1945 96.2728 32.1945Z" fill="white"/>
<path d="M103.46 39.7105C103.46 41.4046 102.304 42.3287 100.679 42.3287C99.8355 42.3287 99.1168 42.0823 98.4919 41.5894L98.8981 41.035C99.3981 41.4046 99.9605 41.5894 100.585 41.5894C101.71 41.5894 102.554 41.0042 102.554 39.5564V38.9404C102.117 39.5564 101.367 39.8953 100.585 39.8953C99.2418 39.8953 97.9607 38.9404 97.9607 37.123C97.9607 35.2749 99.3043 34.3816 100.585 34.3816C101.398 34.3816 102.117 34.7204 102.554 35.3673L102.648 34.474H103.398V39.7105H103.46ZM102.617 37.0922C102.617 35.8909 101.835 35.0901 100.742 35.0901C99.5855 35.0901 98.8669 35.9525 98.8669 37.0922C98.8669 38.2627 99.6168 39.0944 100.742 39.0944C101.867 39.0944 102.617 38.2935 102.617 37.0922Z" fill="white"/>
<path d="M100.678 42.4824C99.8035 42.4824 99.0848 42.236 98.3974 41.7123L98.2724 41.6199L98.8661 40.8191L98.9911 40.9115C99.4911 41.2503 100.022 41.4351 100.585 41.4351C101.428 41.4351 102.397 41.0963 102.397 39.5562V39.3405C101.928 39.7718 101.303 40.049 100.585 40.049C99.2098 40.049 97.8037 39.0325 97.8037 37.1227C97.8037 35.1206 99.2411 34.2273 100.585 34.2273C101.303 34.2273 101.96 34.5045 102.428 34.9974L102.491 34.3505H103.522V39.7718C103.616 41.3735 102.46 42.4824 100.678 42.4824ZM98.7099 41.5583C99.2723 41.9588 99.9285 42.1744 100.678 42.1744C102.303 42.1744 103.303 41.2195 103.303 39.7102V34.5969H102.866L102.741 35.7674L102.491 35.3978C102.085 34.8125 101.428 34.4737 100.647 34.4737C99.4598 34.4737 98.1787 35.2746 98.1787 37.0611C98.1787 38.8477 99.4598 39.6794 100.647 39.6794C101.428 39.6794 102.116 39.3405 102.491 38.7861L102.522 38.7245H102.772V38.8785V39.4946C102.772 40.9115 102.022 41.6815 100.647 41.6815C100.054 41.6815 99.4911 41.5275 98.9911 41.1887L98.7099 41.5583ZM100.772 39.2481C99.5536 39.2481 98.7411 38.3549 98.7411 37.0919C98.7411 35.829 99.5848 34.9358 100.772 34.9358C101.96 34.9358 102.803 35.829 102.803 37.0919C102.772 38.3549 101.96 39.2481 100.772 39.2481ZM100.741 35.2438C99.7098 35.2438 99.0223 35.983 99.0223 37.0919C99.0223 38.2008 99.741 38.9401 100.741 38.9401C101.772 38.9401 102.428 38.2008 102.428 37.0919C102.46 35.983 101.772 35.2438 100.741 35.2438Z" fill="white"/>
<path d="M109.21 39.8954V36.6919C109.21 35.7062 108.71 35.0594 107.741 35.0594C106.679 35.0594 105.96 35.7986 105.96 36.7843V39.8646H105.116V34.3817H105.835L105.929 35.2442C106.398 34.5973 107.085 34.2893 107.929 34.2893C109.304 34.2893 110.085 35.1826 110.085 36.5687V39.8954H109.21Z" fill="white"/>
<path d="M110.209 40.0489H109.053V36.6914C109.053 36.1369 108.897 35.2129 107.74 35.2129C106.803 35.2129 106.116 35.8597 106.116 36.7838V40.0181H104.959V34.2272H105.991L106.053 34.874C106.522 34.3812 107.178 34.1348 107.928 34.1348C109.334 34.1348 110.24 35.0588 110.24 36.5682V40.0489H110.209ZM109.365 39.7409H109.897V36.5682C109.897 35.2437 109.147 34.4428 107.897 34.4428C107.116 34.4428 106.459 34.7508 106.053 35.3361L105.803 35.6749L105.678 34.5352H105.241V39.7101H105.772V36.7838C105.772 35.6749 106.584 34.9048 107.709 34.9048C108.74 34.9048 109.334 35.5517 109.334 36.6914V39.7409H109.365Z" fill="white"/>
<path d="M74.4309 12.8198C74.056 6.32045 70.0563 3.14777 63.9006 3.14777H58.4323V12.8198H55.4326V0.529541H64.5568C72.5874 0.529541 77.087 5.88921 77.4619 12.8198H74.4309ZM55.4014 15.9309H58.4011V24.5556H63.7444C69.8688 24.5556 73.6185 21.5986 74.3372 15.9309H77.3369C76.5558 22.4611 71.9937 27.1739 64.4631 27.1739H55.4014V15.9309Z" fill="white"/>
<path d="M85.6174 27.1738L90.242 15.8076H106.178L111.053 27.1738H107.397L103.928 18.9495H92.6481L89.2421 27.1738H85.6174Z" fill="white"/>
<path d="M94.9293 12.8198L98.3352 5.45797L101.585 12.8198H105.022L99.9601 0.529541H96.6166L91.4296 12.8198H94.9293Z" fill="white"/>
</svg>
