<svg width="59" height="59" viewBox="0 0 59 59" fill="none" xmlns="http://www.w3.org/2000/svg">
<path d="M23.6539 44.5666H35.9266C40.6954 44.5666 44.5807 40.6813 44.5807 35.9125V23.6539C44.5807 18.8851 40.6954 15 35.9266 15H23.6539C18.8851 15 15 18.8851 15 23.6539V35.9125C15 40.6813 18.8851 44.5666 23.6539 44.5666Z" fill="#282A32"/>
<path d="M29.7973 37.1754C25.7157 37.1754 22.4058 33.8652 22.4058 29.7837C22.4058 25.7021 25.7298 22.3921 29.7973 22.3921C33.8788 22.3921 37.189 25.7021 37.189 29.7837C37.189 33.8652 33.8788 37.1754 29.7973 37.1754ZM29.7973 25.0009C27.1604 25.0009 25.0146 27.1468 25.0146 29.7837C25.0146 32.4206 27.1604 34.5666 29.7973 34.5666C32.4341 34.5666 34.5802 32.4206 34.5802 29.7837C34.5802 27.1468 32.4341 25.0009 29.7973 25.0009Z" fill="white"/>
<path d="M37.6238 23.2616C38.3442 23.2616 38.9281 22.6776 38.9281 21.9572C38.9281 21.2368 38.3442 20.6528 37.6238 20.6528C36.9034 20.6528 36.3193 21.2368 36.3193 21.9572C36.3193 22.6776 36.9034 23.2616 37.6238 23.2616Z" fill="white"/>
<circle cx="29.5" cy="29.5" r="28.5" stroke="#282A32" stroke-width="2"/>
</svg>
