<svg width="215" height="76" viewBox="0 0 215 76" fill="none" xmlns="http://www.w3.org/2000/svg">
<path d="M26.2908 23.3997H10.7111L0 47.743H15.5797L26.2908 23.3997Z" fill="white"/>
<path d="M54.529 47.7429H39.923L18.3062 0.0300293H33.1069L47.6155 32.3579L62.1241 0.0300293H70.8877L92.3098 47.7429H78.6775L66.5059 20.6731L54.3342 47.7429" fill="white"/>
<path d="M188.709 23.3997H204.483L215 47.743H199.42L188.709 23.3997Z" fill="white"/>
<path d="M158.523 47.7429H173.129L194.746 0.0300293H179.946L165.437 32.3579L150.928 0.0300293H142.165L120.743 47.7429H134.375L146.547 20.6731L158.718 47.7429" fill="white"/>
<path d="M99.3207 47.7429V11.7148H85.6885V0.0300293H127.559V11.7148H113.927V47.7429H99.3207Z" fill="white"/>
<path d="M151.415 61.2782H154.531V69.1655C154.531 71.4051 153.947 72.963 152.876 73.9368C151.805 74.9105 150.149 75.3974 147.812 75.3974C146.06 75.3974 144.599 75.1052 143.528 74.521C142.457 73.9368 141.775 72.963 141.678 71.7945H144.891C145.281 72.5735 146.254 72.963 147.812 72.963C148.981 72.963 149.857 72.7683 150.344 72.2814C150.831 71.7945 151.123 71.1129 151.123 70.1392V69.3602C150.149 70.5287 148.591 71.0156 146.644 71.0156C144.891 71.0156 143.431 70.5287 142.359 69.6523C141.288 68.776 140.704 67.5101 140.704 66.0495C140.704 64.4916 141.288 63.3231 142.359 62.4467C143.431 61.5704 144.891 61.0835 146.741 61.0835C148.883 61.0835 150.441 61.7651 151.415 63.031V61.2782ZM147.812 68.6786C148.883 68.6786 149.76 68.3865 150.441 67.8996C151.123 67.4128 151.415 66.8285 151.415 66.0495C151.415 65.2705 151.123 64.6863 150.441 64.1994C149.76 63.7126 148.883 63.4205 147.812 63.4205C146.741 63.4205 145.767 63.7126 145.183 64.1994C144.502 64.6863 144.21 65.2705 144.21 66.0495C144.21 66.7311 144.502 67.4128 145.183 67.8996C145.767 68.3865 146.644 68.6786 147.812 68.6786Z" fill="white"/>
<path d="M164.366 60.9856C164.853 60.9856 165.34 61.083 165.924 61.1803V64.1015C165.242 64.0042 164.561 63.9068 163.879 63.9068C162.71 63.9068 161.834 64.1989 161.25 64.8805C160.666 65.4648 160.373 66.5359 160.373 67.8991V71.4045H157.16V61.2777H160.276V63.8094C161.055 61.9593 162.418 60.9856 164.366 60.9856Z" fill="white"/>
<path d="M169.04 70.2361C167.774 69.2624 167.092 67.9965 167.092 66.3412C167.092 64.6858 167.774 63.42 169.04 62.4462C170.306 61.4725 172.058 61.083 174.201 61.083C176.343 61.083 178.095 61.5699 179.361 62.4462C180.627 63.42 181.309 64.6858 181.309 66.3412C181.309 67.9965 180.627 69.2624 179.361 70.2361C178.095 71.2098 176.343 71.5993 174.201 71.5993C172.058 71.5993 170.306 71.1124 169.04 70.2361ZM171.377 64.2963C170.695 64.7832 170.403 65.4648 170.403 66.2438C170.403 67.0228 170.695 67.7044 171.377 68.1913C172.058 68.6781 172.935 68.9702 174.103 68.9702C175.272 68.9702 176.148 68.6781 176.83 68.1913C177.511 67.7044 177.803 67.0228 177.803 66.2438C177.803 65.4648 177.511 64.7832 176.83 64.2963C176.148 63.8095 175.272 63.5173 174.103 63.5173C173.032 63.5173 172.058 63.8095 171.377 64.2963Z" fill="white"/>
<path d="M192.799 61.2778H196.207V71.4046H193.091V68.9703C192.117 70.8204 190.462 71.6968 188.222 71.6968C186.664 71.6968 185.496 71.2099 184.619 70.3335C183.743 69.4572 183.354 68.1913 183.354 66.6334V61.2778H186.762V65.5623C186.762 67.8018 187.735 68.8729 189.585 68.8729C190.657 68.8729 191.533 68.4834 192.117 67.8018C192.701 67.1202 192.993 66.1465 192.993 65.0754V61.2778H192.799Z" fill="white"/>
<path d="M206.626 60.9856C208.378 60.9856 209.839 61.4725 210.91 62.4462C211.981 63.4199 212.565 64.6858 212.565 66.3411C212.565 67.9965 211.981 69.2623 210.91 70.236C209.839 71.2098 208.378 71.6966 206.626 71.6966C204.581 71.6966 203.12 71.1124 202.049 69.9439V75.3968H198.641V61.2777H201.757V63.1278C202.731 61.6672 204.386 60.9856 206.626 60.9856ZM202.926 68.2886C203.607 68.7755 204.483 69.0676 205.555 69.0676C206.723 69.0676 207.599 68.7755 208.184 68.2886C208.768 67.8017 209.157 67.1201 209.157 66.2437C209.157 65.3674 208.865 64.7832 208.184 64.1989C207.502 63.6147 206.626 63.4199 205.555 63.4199C204.386 63.4199 203.51 63.712 202.926 64.1989C202.244 64.6858 201.952 65.3674 201.952 66.2437C201.952 67.1201 202.244 67.8017 202.926 68.2886Z" fill="white"/>
</svg>
