<svg width="59" height="59" viewBox="0 0 59 59" fill="none" xmlns="http://www.w3.org/2000/svg">
<path d="M29.1423 43.3261C26.6657 43.3261 24.2278 42.6682 22.0801 41.4299L16.5658 43.3261L17.7074 37.4828C15.9273 35.0449 14.9986 32.1814 14.9986 29.163C14.9792 21.3463 21.3255 15 29.1423 15C36.959 15 43.3053 21.3463 43.3053 29.163C43.3053 36.9798 36.959 43.3261 29.1423 43.3261Z" fill="#282A32"/>
<path d="M21.9831 23.7258C21.9831 23.7258 22.8151 22.2747 23.4923 22.1973C24.1695 22.1199 25.0402 22.1199 25.2724 22.5649C25.5046 23.0099 26.5494 25.5833 26.5494 25.5833C26.5494 25.5833 26.7235 26.0283 26.4526 26.4539C26.1818 26.8796 25.5626 27.4988 25.5626 27.4988C25.5626 27.4988 25.2143 27.9438 25.5626 28.4081C25.9109 28.8725 26.4526 29.7432 27.5555 30.846C28.6583 31.9489 30.7867 32.7422 30.7867 32.7422C30.7867 32.7422 31.0962 32.7809 31.2897 32.5874C31.4832 32.3939 32.528 31.0782 32.528 31.0782C32.528 31.0782 32.857 30.6332 33.4181 30.9041C33.9792 31.1556 36.3977 32.3746 36.3977 32.3746C36.3977 32.3746 36.6879 32.4713 36.6879 32.9163C36.6879 33.342 36.5138 34.3868 36.1655 34.7544C35.8173 35.1027 34.7724 36.2055 33.2052 36.2055C31.638 36.2055 27.9425 34.9285 25.9496 32.955C23.976 30.9815 22.2153 28.9692 21.809 27.1505C21.422 25.293 21.4801 24.4804 21.9831 23.7258Z" fill="white"/>
<circle cx="29.5" cy="29.5" r="28.5" stroke="#282A32" stroke-width="2"/>
</svg>
